# xmcd CD database file
#
# Track frame offsets:
#	150
#	18559
#	40813
#	60596
#	74106
#	90031
#	111170
#	134354
#	151545
#	170040
#	196611
#	215714
#	233605
#	262299
#	283033
#	300686
#
# Disc length: 4278 seconds
#
# Revision: 0
# Processed by: cddbd v1.5.2PL0 Copyright (c) Steve Scherf et al.
# Submitted via: CDex 1.51
#
DISCID=e010b410
DTITLE=Various Artist - North Sea Jazz - Jazz Vocalists cd4
DYEAR=2008
DGENRE=Jazz
TTITLE0=Diana Krall - The girl in the other room
TTITLE1=Abbey Lincoln - Bird Alone
TTITLE2=Silje Nergaard - Japanese blue
TTITLE3=Lizz Wright - Wake up, little sparrow
TTITLE4=Peter Cincotti - Some kind of wonderful
TTITLE5=Nathalie Cole - Lovin' arms
TTITLE6=Roberta Gambarini - I'll be tired of you?
TTITLE7=Molly Johnson - If you know love
TTITLE8=Matt Dusk - Cold as ice
TTITLE9=Till Brönner - Everything happens to me
TTITLE10=Silje Nergaard - Now and then
TTITLE11=Madeleine Peyroux - Dance me to the end of love
TTITLE12=Abbey Lincoln - The world is falling town
TTITLE13=Jamie Cullum - All at sea
TTITLE14=Anna Maria Jopek - Cisza na skronie, na powieki
TTITLE15=Molly Johnson - Let's waste some time
EXTD=YEAR: 2008
EXTT0=
EXTT1=
EXTT2=
EXTT3=
EXTT4=
EXTT5=
EXTT6=
EXTT7=
EXTT8=
EXTT9=
EXTT10=
EXTT11=
EXTT12=
EXTT13=
EXTT14=
EXTT15=
PLAYORDER=
